<?xml version="1.0" encoding="utf-8"?><!-- Uploaded to: SVG Repo, www.svgrepo.com, Generator: SVG Repo Mixer Tools -->
<svg fill="#000000" width="800px" height="800px" viewBox="0 0 24 24" id="fish-left" data-name="Flat Color" xmlns="http://www.w3.org/2000/svg" class="icon flat-color"><path id="primary" d="M22,8.51a1,1,0,0,0-.45-.83,4.6,4.6,0,0,0-4.84,0,5.4,5.4,0,0,0-.9.67A10.44,10.44,0,0,0,9.5,6C5,6,2.63,9.74,2,11.71a1.14,1.14,0,0,0,0,.58C2.63,14.26,5,18,9.5,18a10.44,10.44,0,0,0,6.31-2.37,6.07,6.07,0,0,0,.9.68,4.62,4.62,0,0,0,4.84,0,1,1,0,0,0,.45-.83A5.43,5.43,0,0,0,20.58,12,5.43,5.43,0,0,0,22,8.51Z" style="fill: rgb(0, 0, 0);"></path></svg>